<mxfile host="app.diagrams.net" agent="Mozilla/5.0 (X11; Linux x86_64) AppleWebKit/537.36 (KHTML, like Gecko) Chrome/135.0.0.0 Safari/537.36" version="27.0.5">
  <diagram name="Page-1" id="PmOtgQnjxEkPDvwjBH-y">
    <mxGraphModel dx="1357" dy="728" grid="0" gridSize="10" guides="1" tooltips="1" connect="1" arrows="1" fold="1" page="0" pageScale="1" pageWidth="1100" pageHeight="850" math="0" shadow="0" adaptiveColors="none">
      <root>
        <mxCell id="0" />
        <mxCell id="1" parent="0" />
        <mxCell id="3_vnTeBhrZ6FZYod8qUJ-8" style="rounded=0;orthogonalLoop=1;jettySize=auto;html=1;entryX=0;entryY=1;entryDx=0;entryDy=0;strokeColor=#E07A5F;fontColor=#393C56;fillColor=#F2CC8F;" edge="1" parent="1" source="3_vnTeBhrZ6FZYod8qUJ-1" target="3_vnTeBhrZ6FZYod8qUJ-5">
          <mxGeometry relative="1" as="geometry" />
        </mxCell>
        <mxCell id="3_vnTeBhrZ6FZYod8qUJ-11" style="rounded=0;orthogonalLoop=1;jettySize=auto;html=1;strokeColor=#E07A5F;fontColor=#393C56;fillColor=#F2CC8F;" edge="1" parent="1" source="3_vnTeBhrZ6FZYod8qUJ-1" target="3_vnTeBhrZ6FZYod8qUJ-10">
          <mxGeometry relative="1" as="geometry" />
        </mxCell>
        <mxCell id="3_vnTeBhrZ6FZYod8qUJ-13" style="rounded=0;orthogonalLoop=1;jettySize=auto;html=1;strokeColor=#E07A5F;fontColor=#393C56;fillColor=#F2CC8F;" edge="1" parent="1" source="3_vnTeBhrZ6FZYod8qUJ-1" target="3_vnTeBhrZ6FZYod8qUJ-12">
          <mxGeometry relative="1" as="geometry" />
        </mxCell>
        <mxCell id="3_vnTeBhrZ6FZYod8qUJ-17" style="rounded=0;orthogonalLoop=1;jettySize=auto;html=1;strokeColor=#E07A5F;fontColor=#393C56;fillColor=#F2CC8F;" edge="1" parent="1" source="3_vnTeBhrZ6FZYod8qUJ-1" target="3_vnTeBhrZ6FZYod8qUJ-16">
          <mxGeometry relative="1" as="geometry" />
        </mxCell>
        <mxCell id="3_vnTeBhrZ6FZYod8qUJ-21" style="rounded=0;orthogonalLoop=1;jettySize=auto;html=1;strokeColor=#E07A5F;fontColor=#393C56;fillColor=#F2CC8F;startArrow=classic;startFill=1;endArrow=none;" edge="1" parent="1" source="3_vnTeBhrZ6FZYod8qUJ-1" target="3_vnTeBhrZ6FZYod8qUJ-20">
          <mxGeometry relative="1" as="geometry" />
        </mxCell>
        <mxCell id="3_vnTeBhrZ6FZYod8qUJ-1" value="&lt;font style=&quot;font-size: 19px;&quot;&gt;Medical Staff&lt;br&gt;(Doctors/Nurses)&lt;/font&gt;" style="shape=umlActor;verticalLabelPosition=bottom;verticalAlign=top;html=1;outlineConnect=0;labelBackgroundColor=none;fillColor=#F2CC8F;strokeColor=#E07A5F;fontColor=#393C56;" vertex="1" parent="1">
          <mxGeometry x="157" y="445" width="30" height="60" as="geometry" />
        </mxCell>
        <mxCell id="3_vnTeBhrZ6FZYod8qUJ-7" style="rounded=0;orthogonalLoop=1;jettySize=auto;html=1;strokeColor=#E07A5F;fontColor=#393C56;fillColor=#F2CC8F;" edge="1" parent="1" source="3_vnTeBhrZ6FZYod8qUJ-2" target="3_vnTeBhrZ6FZYod8qUJ-5">
          <mxGeometry relative="1" as="geometry" />
        </mxCell>
        <mxCell id="3_vnTeBhrZ6FZYod8qUJ-9" style="rounded=0;orthogonalLoop=1;jettySize=auto;html=1;entryX=1;entryY=1;entryDx=0;entryDy=0;strokeColor=#E07A5F;fontColor=#393C56;fillColor=#F2CC8F;endArrow=none;startFill=1;startArrow=classic;" edge="1" parent="1" source="3_vnTeBhrZ6FZYod8qUJ-2" target="3_vnTeBhrZ6FZYod8qUJ-6">
          <mxGeometry relative="1" as="geometry" />
        </mxCell>
        <mxCell id="3_vnTeBhrZ6FZYod8qUJ-14" style="rounded=0;orthogonalLoop=1;jettySize=auto;html=1;entryX=1;entryY=0.5;entryDx=0;entryDy=0;strokeColor=#E07A5F;fontColor=#393C56;fillColor=#F2CC8F;" edge="1" parent="1" source="3_vnTeBhrZ6FZYod8qUJ-2" target="3_vnTeBhrZ6FZYod8qUJ-12">
          <mxGeometry relative="1" as="geometry" />
        </mxCell>
        <mxCell id="3_vnTeBhrZ6FZYod8qUJ-19" style="rounded=0;orthogonalLoop=1;jettySize=auto;html=1;strokeColor=#E07A5F;fontColor=#393C56;fillColor=#F2CC8F;" edge="1" parent="1" source="3_vnTeBhrZ6FZYod8qUJ-2" target="3_vnTeBhrZ6FZYod8qUJ-18">
          <mxGeometry relative="1" as="geometry" />
        </mxCell>
        <mxCell id="3_vnTeBhrZ6FZYod8qUJ-2" value="&lt;font style=&quot;font-size: 19px;&quot;&gt;Patients&lt;/font&gt;" style="shape=umlActor;verticalLabelPosition=bottom;verticalAlign=top;html=1;outlineConnect=0;labelBackgroundColor=none;fillColor=#F2CC8F;strokeColor=#E07A5F;fontColor=#393C56;" vertex="1" parent="1">
          <mxGeometry x="1250" y="431" width="30" height="60" as="geometry" />
        </mxCell>
        <mxCell id="3_vnTeBhrZ6FZYod8qUJ-3" value="" style="rounded=0;whiteSpace=wrap;html=1;strokeColor=#E07A5F;fontColor=#393C56;fillColor=none;strokeWidth=3;" vertex="1" parent="1">
          <mxGeometry x="257" y="154" width="936" height="642" as="geometry" />
        </mxCell>
        <mxCell id="3_vnTeBhrZ6FZYod8qUJ-5" value="&lt;font style=&quot;font-size: 19px;&quot;&gt;Set Vital Sign Thresholds&lt;/font&gt;" style="ellipse;whiteSpace=wrap;html=1;strokeColor=#E07A5F;fontColor=#393C56;fillColor=#F2CC8F;" vertex="1" parent="1">
          <mxGeometry x="665" y="228" width="134" height="89" as="geometry" />
        </mxCell>
        <mxCell id="3_vnTeBhrZ6FZYod8qUJ-6" value="&lt;font style=&quot;font-size: 19px;&quot;&gt;Receive alert to take reading&lt;/font&gt;" style="ellipse;whiteSpace=wrap;html=1;strokeColor=#E07A5F;fontColor=#393C56;fillColor=#F2CC8F;" vertex="1" parent="1">
          <mxGeometry x="829" y="489" width="144" height="101.5" as="geometry" />
        </mxCell>
        <mxCell id="3_vnTeBhrZ6FZYod8qUJ-10" value="&lt;font style=&quot;font-size: 19px;&quot;&gt;Send&lt;span style=&quot;background-color: transparent; color: light-dark(rgb(57, 60, 86), rgb(182, 184, 207));&quot;&gt;&amp;nbsp;alert to take reading&lt;/span&gt;&lt;/font&gt;" style="ellipse;whiteSpace=wrap;html=1;strokeColor=#E07A5F;fontColor=#393C56;fillColor=#F2CC8F;" vertex="1" parent="1">
          <mxGeometry x="376" y="222" width="133" height="88" as="geometry" />
        </mxCell>
        <mxCell id="3_vnTeBhrZ6FZYod8qUJ-12" value="&lt;font style=&quot;font-size: 19px;&quot;&gt;Take reading from medical sensor device&lt;/font&gt;" style="ellipse;whiteSpace=wrap;html=1;strokeColor=#E07A5F;fontColor=#393C56;fillColor=#F2CC8F;" vertex="1" parent="1">
          <mxGeometry x="665" y="361" width="149" height="99" as="geometry" />
        </mxCell>
        <mxCell id="3_vnTeBhrZ6FZYod8qUJ-16" value="&lt;font style=&quot;font-size: 19px;&quot;&gt;View readings on cloud platform&lt;/font&gt;" style="ellipse;whiteSpace=wrap;html=1;strokeColor=#E07A5F;fontColor=#393C56;fillColor=#F2CC8F;" vertex="1" parent="1">
          <mxGeometry x="490" y="510.5" width="152" height="90.5" as="geometry" />
        </mxCell>
        <mxCell id="3_vnTeBhrZ6FZYod8qUJ-18" value="&lt;font style=&quot;font-size: 19px;&quot;&gt;Connect medical sensor devices through BT LE&lt;/font&gt;" style="ellipse;whiteSpace=wrap;html=1;strokeColor=#E07A5F;fontColor=#393C56;fillColor=#F2CC8F;" vertex="1" parent="1">
          <mxGeometry x="803" y="639" width="161" height="110" as="geometry" />
        </mxCell>
        <mxCell id="3_vnTeBhrZ6FZYod8qUJ-20" value="&lt;font style=&quot;font-size: 19px;&quot;&gt;Receive notification if patient status abnormal&lt;/font&gt;" style="ellipse;whiteSpace=wrap;html=1;strokeColor=#E07A5F;fontColor=#393C56;fillColor=#F2CC8F;" vertex="1" parent="1">
          <mxGeometry x="490" y="669" width="156" height="99" as="geometry" />
        </mxCell>
        <mxCell id="3_vnTeBhrZ6FZYod8qUJ-22" value="Vital Sign Monitoring System" style="text;html=1;align=center;verticalAlign=middle;whiteSpace=wrap;rounded=0;fontColor=#393C56;strokeWidth=1;fontSize=24;" vertex="1" parent="1">
          <mxGeometry x="553.75" y="110" width="342.5" height="30" as="geometry" />
        </mxCell>
      </root>
    </mxGraphModel>
  </diagram>
</mxfile>
